<?xml version="1.0" encoding="utf-8"?>
<!-- Generator: Adobe Illustrator 19.2.1, SVG Export Plug-In . SVG Version: 6.00 Build 0)  -->
<svg version="1.1" id="圖層_1" xmlns="http://www.w3.org/2000/svg" xmlns:xlink="http://www.w3.org/1999/xlink" x="0px" y="0px"
	 viewBox="0 0 100 36.4" style="enable-background:new 0 0 100 36.4;" xml:space="preserve">
<style type="text/css">
	.st0{fill:#E0DF46;}
</style>
<g>
	<path class="st0" d="M20.1,12.7l-7.1,22.8H17c1.7,0,3.1-1,3.7-2.7L27.9,10h-4.1C22.1,10,20.4,11,20.1,12.7z"/>
	<circle class="st0" cx="25.5" cy="4.2" r="3.4"/>
	<path class="st0" d="M4.4,6.2H0.7l8.8,28.9l3.4-11.2L8.8,9.3C8.1,7.6,6.4,6.2,4.4,6.2z"/>
	<path class="st0" d="M70.4,10c-7.1,0-12.6,5.8-12.6,12.6s5.8,12.6,12.6,12.6S83,29.4,83,22.5S77.6,10,70.4,10z M70.4,28.7
		c-3.4,0-6.1-2.7-6.1-6.1s2.7-5.8,6.1-5.8c3.4,0,6.1,2.7,6.1,6.1S73.5,28.7,70.4,28.7z"/>
	<path class="st0" d="M91.2,9.3L83,35.5h4.4c1.7,0,3.1-1,3.7-2.7l8.2-26.5h-3.7C93.6,6.2,91.9,7.6,91.2,9.3z"/>
	<path class="st0" d="M50.7,9.6l-1.4,4.1L49,13.4c-2.4-2.4-5.4-3.7-8.8-3.7c-7.1,0-12.6,5.8-12.6,12.6s5.8,12.6,12.6,12.6
		c3.1,0,6.1-1,8.5-3.1l0.3-0.3l1,3.1l8.8-28.9h-3.4C53.4,6.2,51.4,7.6,50.7,9.6z M40.5,29c-3.4,0-6.1-2.7-6.1-6.1s2.7-6.1,6.1-6.1
		s6.1,2.7,6.1,6.1S43.9,29,40.5,29z"/>
</g>
</svg>
